{
	"accessors": [
		{
			"bufferView": 2,
			"componentType": 5126,
			"count": 65532,
			"max": [5.156247138977051, 0.8490501642227173, 3.1977288722991943],
			"min": [-5.594635486602783, -2.504032611846924, -3.7426669597625732],
			"type": "VEC3"
		},
		{
			"bufferView": 2,
			"byteOffset": 786384,
			"componentType": 5126,
			"count": 65532,
			"max": [0.9999008178710938, 0.9999886751174927, 0.9999953508377075],
			"min": [-0.9999982714653015, -0.9999999403953552, -0.9999986290931702],
			"type": "VEC3"
		},
		{
			"bufferView": 1,
			"componentType": 5126,
			"count": 65532,
			"max": [0.9997100234031677, 0.9597100019454956],
			"min": [0.00023999999393709004, 0.00026000000070780516],
			"type": "VEC2"
		},
		{
			"bufferView": 0,
			"componentType": 5125,
			"count": 283587,
			"type": "SCALAR"
		},
		{
			"bufferView": 2,
			"byteOffset": 1572768,
			"componentType": 5126,
			"count": 65532,
			"max": [1.3473591804504395, 0.8356428146362305, 3.9596400260925293],
			"min": [-5.591513633728027, -2.4813504219055176, -3.5704917907714844],
			"type": "VEC3"
		},
		{
			"bufferView": 2,
			"byteOffset": 2359152,
			"componentType": 5126,
			"count": 65532,
			"max": [0.9996060729026794, 0.9999724626541138, 0.9999986886978149],
			"min": [-0.9999997615814209, -1.0, -0.9999328851699829],
			"type": "VEC3"
		},
		{
			"bufferView": 1,
			"byteOffset": 524256,
			"componentType": 5126,
			"count": 65532,
			"max": [0.9997000098228455, 0.9597100019454956],
			"min": [0.00023999999393709004, 0.0002500000118743628],
			"type": "VEC2"
		},
		{
			"bufferView": 0,
			"byteOffset": 1134348,
			"componentType": 5125,
			"count": 250353,
			"type": "SCALAR"
		},
		{
			"bufferView": 2,
			"byteOffset": 3145536,
			"componentType": 5126,
			"count": 65532,
			"max": [5.518563747406006, 1.0294758081436157, 6.572930812835693],
			"min": [-5.566049098968506, -2.507219076156616, -6.0171003341674805],
			"type": "VEC3"
		},
		{
			"bufferView": 2,
			"byteOffset": 3931920,
			"componentType": 5126,
			"count": 65532,
			"max": [0.9999986886978149, 0.999998927116394, 0.9999425411224365],
			"min": [-0.9999971985816956, -1.0, -0.9999868273735046],
			"type": "VEC3"
		},
		{
			"bufferView": 1,
			"byteOffset": 1048512,
			"componentType": 5126,
			"count": 65532,
			"max": [0.999750018119812, 0.9567800164222717],
			"min": [0.00023999999393709004, 0.0002500000118743628],
			"type": "VEC2"
		},
		{
			"bufferView": 0,
			"byteOffset": 2135760,
			"componentType": 5125,
			"count": 257049,
			"type": "SCALAR"
		},
		{
			"bufferView": 2,
			"byteOffset": 4718304,
			"componentType": 5126,
			"count": 65532,
			"max": [5.517071723937988, 0.8181133270263672, 6.570320129394531],
			"min": [-1.087959885597229, -2.5080645084381104, -3.663907527923584],
			"type": "VEC3"
		},
		{
			"bufferView": 2,
			"byteOffset": 5504688,
			"componentType": 5126,
			"count": 65532,
			"max": [0.9999977946281433, 0.9999911189079285, 0.999999463558197],
			"min": [-0.9999584555625916, -1.0, -0.9999986290931702],
			"type": "VEC3"
		},
		{
			"bufferView": 1,
			"byteOffset": 1572768,
			"componentType": 5126,
			"count": 65532,
			"max": [0.9997199773788452, 0.9577599763870239],
			"min": [0.00023999999393709004, 0.00023999999393709004],
			"type": "VEC2"
		},
		{
			"bufferView": 0,
			"byteOffset": 3163956,
			"componentType": 5125,
			"count": 217944,
			"type": "SCALAR"
		},
		{
			"bufferView": 2,
			"byteOffset": 6291072,
			"componentType": 5126,
			"count": 65532,
			"max": [5.869049072265625, 0.8583650588989258, 6.605225086212158],
			"min": [-5.2995219230651855, -2.4898788928985596, 1.6127398014068604],
			"type": "VEC3"
		},
		{
			"bufferView": 2,
			"byteOffset": 7077456,
			"componentType": 5126,
			"count": 65532,
			"max": [0.999991238117218, 0.9999974370002747, 1.0],
			"min": [-0.9999871253967285, -0.9999994039535522, -0.9999958872795105],
			"type": "VEC3"
		},
		{
			"bufferView": 1,
			"byteOffset": 2097024,
			"componentType": 5126,
			"count": 65532,
			"max": [0.9996899962425232, 0.9753400087356567],
			"min": [0.00023999999393709004, 0.00026000000070780516],
			"type": "VEC2"
		},
		{
			"bufferView": 0,
			"byteOffset": 4035732,
			"componentType": 5125,
			"count": 244161,
			"type": "SCALAR"
		},
		{
			"bufferView": 2,
			"byteOffset": 7863840,
			"componentType": 5126,
			"count": 65533,
			"max": [6.27537727355957, 1.014791488647461, 6.603525161743164],
			"min": [-1.0443881750106812, -2.628281593322754, 1.6127398014068604],
			"type": "VEC3"
		},
		{
			"bufferView": 2,
			"byteOffset": 8650236,
			"componentType": 5126,
			"count": 65533,
			"max": [0.999999463558197, 0.999881386756897, 0.9999958872795105],
			"min": [-0.9999871253967285, -0.9999958276748657, -0.9999902844429016],
			"type": "VEC3"
		},
		{
			"bufferView": 1,
			"byteOffset": 2621280,
			"componentType": 5126,
			"count": 65533,
			"max": [0.999750018119812, 0.9655699729919434],
			"min": [0.00023999999393709004, 0.00023999999393709004],
			"type": "VEC2"
		},
		{
			"bufferView": 0,
			"byteOffset": 5012376,
			"componentType": 5125,
			"count": 217053,
			"type": "SCALAR"
		},
		{
			"bufferView": 2,
			"byteOffset": 9436632,
			"componentType": 5126,
			"count": 65532,
			"max": [5.803783893585205, 0.8230549693107605, 6.573117256164551],
			"min": [-6.222467422485352, -2.4554855823516846, 1.6146607398986816],
			"type": "VEC3"
		},
		{
			"bufferView": 2,
			"byteOffset": 10223016,
			"componentType": 5126,
			"count": 65532,
			"max": [0.999999463558197, 0.9999805688858032, 0.9999999403953552],
			"min": [-1.0, -0.9999957084655762, -0.9999819993972778],
			"type": "VEC3"
		},
		{
			"bufferView": 1,
			"byteOffset": 3145544,
			"componentType": 5126,
			"count": 65532,
			"max": [0.9997299909591675, 0.9850999712944031],
			"min": [0.00023999999393709004, 0.0002899999963119626],
			"type": "VEC2"
		},
		{
			"bufferView": 0,
			"byteOffset": 5880588,
			"componentType": 5125,
			"count": 224403,
			"type": "SCALAR"
		},
		{
			"bufferView": 2,
			"byteOffset": 11009400,
			"componentType": 5126,
			"count": 65532,
			"max": [5.474514007568359, 0.9322957396507263, 6.473407745361328],
			"min": [-5.8098883628845215, -2.0973622798919678, -6.373771667480469],
			"type": "VEC3"
		},
		{
			"bufferView": 2,
			"byteOffset": 11795784,
			"componentType": 5126,
			"count": 65532,
			"max": [0.9999999403953552, 0.999998927116394, 0.9999927878379822],
			"min": [-0.999976634979248, -0.9999986290931702, -0.9999943971633911],
			"type": "VEC3"
		},
		{
			"bufferView": 1,
			"byteOffset": 3669800,
			"componentType": 5126,
			"count": 65532,
			"max": [0.9997400045394897, 0.9577599763870239],
			"min": [0.00023999999393709004, 0.00023999999393709004],
			"type": "VEC2"
		},
		{
			"bufferView": 0,
			"byteOffset": 6778200,
			"componentType": 5125,
			"count": 243300,
			"type": "SCALAR"
		},
		{
			"bufferView": 2,
			"byteOffset": 12582168,
			"componentType": 5126,
			"count": 65532,
			"max": [5.419529914855957, 0.9088800549507141, -2.386822462081909],
			"min": [-5.592076778411865, -1.5060068368911743, -6.39008903503418],
			"type": "VEC3"
		},
		{
			"bufferView": 2,
			"byteOffset": 13368552,
			"componentType": 5126,
			"count": 65532,
			"max": [0.9999892115592957, 0.9999829530715942, 0.9999798536300659],
			"min": [-0.9999715089797974, -0.9999966025352478, -0.99998539686203],
			"type": "VEC3"
		},
		{
			"bufferView": 1,
			"byteOffset": 4194056,
			"componentType": 5126,
			"count": 65532,
			"max": [0.999750018119812, 0.9577599763870239],
			"min": [0.00023999999393709004, 0.00023999999393709004],
			"type": "VEC2"
		},
		{
			"bufferView": 0,
			"byteOffset": 7751400,
			"componentType": 5125,
			"count": 240261,
			"type": "SCALAR"
		},
		{
			"bufferView": 2,
			"byteOffset": 14154936,
			"componentType": 5126,
			"count": 65532,
			"max": [1.1048702001571655, 0.9186374545097351, -2.382356643676758],
			"min": [-5.576253890991211, -1.5205377340316772, -6.388271808624268],
			"type": "VEC3"
		},
		{
			"bufferView": 2,
			"byteOffset": 14941320,
			"componentType": 5126,
			"count": 65532,
			"max": [0.9999901652336121, 0.9999107718467712, 0.9999798536300659],
			"min": [-1.0, -0.9999995827674866, -0.9999905228614807],
			"type": "VEC3"
		},
		{
			"bufferView": 1,
			"byteOffset": 4718312,
			"componentType": 5126,
			"count": 65532,
			"max": [0.9997299909591675, 0.9626399874687195],
			"min": [0.00023999999393709004, 0.0002500000118743628],
			"type": "VEC2"
		},
		{
			"bufferView": 0,
			"byteOffset": 8712444,
			"componentType": 5125,
			"count": 216738,
			"type": "SCALAR"
		},
		{
			"bufferView": 2,
			"byteOffset": 15727704,
			"componentType": 5126,
			"count": 65532,
			"max": [1.089009404182434, 1.0716606378555298, 6.619396209716797],
			"min": [-6.264238357543945, -2.4195566177368164, -6.366028785705566],
			"type": "VEC3"
		},
		{
			"bufferView": 2,
			"byteOffset": 16514088,
			"componentType": 5126,
			"count": 65532,
			"max": [0.9999536871910095, 0.9999879002571106, 0.9999999403953552],
			"min": [-0.9999999403953552, -0.9999991655349731, -0.9999028444290161],
			"type": "VEC3"
		},
		{
			"bufferView": 1,
			"byteOffset": 5242568,
			"componentType": 5126,
			"count": 65532,
			"max": [0.999750018119812, 0.9772899746894836],
			"min": [0.00023999999393709004, 0.00023999999393709004],
			"type": "VEC2"
		},
		{
			"bufferView": 0,
			"byteOffset": 9579396,
			"componentType": 5125,
			"count": 232485,
			"type": "SCALAR"
		},
		{
			"bufferView": 2,
			"byteOffset": 17300472,
			"componentType": 5126,
			"count": 65532,
			"max": [1.102342963218689, 1.058632493019104, 6.608519077301025],
			"min": [-6.3134379386901855, -2.4866180419921875, 2.577510356903076],
			"type": "VEC3"
		},
		{
			"bufferView": 2,
			"byteOffset": 18086856,
			"componentType": 5126,
			"count": 65532,
			"max": [0.9999516606330872, 0.9999882578849792, 0.9999991655349731],
			"min": [-0.9999986886978149, -0.9999991059303284, -0.9999759197235107],
			"type": "VEC3"
		},
		{
			"bufferView": 1,
			"byteOffset": 5766824,
			"componentType": 5126,
			"count": 65532,
			"max": [0.9997400045394897, 0.9753400087356567],
			"min": [0.00023999999393709004, 0.00023999999393709004],
			"type": "VEC2"
		},
		{
			"bufferView": 0,
			"byteOffset": 10509336,
			"componentType": 5125,
			"count": 203415,
			"type": "SCALAR"
		},
		{
			"bufferView": 2,
			"byteOffset": 18873240,
			"componentType": 5126,
			"count": 53021,
			"max": [6.034506320953369, 1.0560494661331177, 6.6150126457214355],
			"min": [-6.313850402832031, -2.6204042434692383, 1.6155377626419067],
			"type": "VEC3"
		},
		{
			"bufferView": 2,
			"byteOffset": 19509492,
			"componentType": 5126,
			"count": 53021,
			"max": [0.9999977350234985, 0.9999195337295532, 0.9999999403953552],
			"min": [-0.9999998807907104, -0.999995768070221, -0.9998980164527893],
			"type": "VEC3"
		},
		{
			"bufferView": 1,
			"byteOffset": 6291080,
			"componentType": 5126,
			"count": 53021,
			"max": [0.9997400045394897, 0.9763100147247314],
			"min": [0.00023999999393709004, 0.0002500000118743628],
			"type": "VEC2"
		},
		{
			"bufferView": 0,
			"byteOffset": 11322996,
			"componentType": 5125,
			"count": 138126,
			"type": "SCALAR"
		}
	],
	"asset": {
		"extras": {
			"author": "JPC (https://sketchfab.com/jpc-cg)",
			"license": "CC-BY-4.0 (http://creativecommons.org/licenses/by/4.0/)",
			"source": "https://sketchfab.com/3d-models/typewriter-c57c539c04d84d60bf4bd9bdec42a3ec",
			"title": "typewriter"
		},
		"generator": "Sketchfab-15.96.0",
		"version": "2.0"
	},
	"bufferViews": [
		{
			"buffer": 0,
			"byteLength": 11875500,
			"name": "floatBufferViews",
			"target": 34963
		},
		{
			"buffer": 0,
			"byteLength": 6715248,
			"byteOffset": 11875500,
			"byteStride": 8,
			"name": "floatBufferViews",
			"target": 34962
		},
		{
			"buffer": 0,
			"byteLength": 20145744,
			"byteOffset": 18590748,
			"byteStride": 12,
			"name": "floatBufferViews",
			"target": 34962
		}
	],
	"buffers": [
		{
			"byteLength": 38736492,
			"uri": "scene.bin"
		}
	],
	"extensionsUsed": ["KHR_materials_specular"],
	"images": [
		{
			"uri": "textures/Scene_-_Root_baseColor.jpeg"
		}
	],
	"materials": [
		{
			"doubleSided": true,
			"emissiveFactor": [1.0, 1.0, 1.0],
			"emissiveTexture": {
				"index": 0
			},
			"extensions": {
				"KHR_materials_specular": {
					"specularColorFactor": [1.0, 1.0, 1.0],
					"specularFactor": 0.0
				}
			},
			"name": "Scene_-_Root",
			"pbrMetallicRoughness": {
				"baseColorTexture": {
					"index": 0
				},
				"metallicFactor": 0.0,
				"roughnessFactor": 0.6
			}
		}
	],
	"meshes": [
		{
			"name": "typewriter03__0",
			"primitives": [
				{
					"attributes": {
						"NORMAL": 1,
						"POSITION": 0,
						"TEXCOORD_0": 2
					},
					"indices": 3,
					"material": 0,
					"mode": 4
				}
			]
		},
		{
			"name": "typewriter03__0",
			"primitives": [
				{
					"attributes": {
						"NORMAL": 5,
						"POSITION": 4,
						"TEXCOORD_0": 6
					},
					"indices": 7,
					"material": 0,
					"mode": 4
				}
			]
		},
		{
			"name": "typewriter03__0",
			"primitives": [
				{
					"attributes": {
						"NORMAL": 9,
						"POSITION": 8,
						"TEXCOORD_0": 10
					},
					"indices": 11,
					"material": 0,
					"mode": 4
				}
			]
		},
		{
			"name": "typewriter03__0",
			"primitives": [
				{
					"attributes": {
						"NORMAL": 13,
						"POSITION": 12,
						"TEXCOORD_0": 14
					},
					"indices": 15,
					"material": 0,
					"mode": 4
				}
			]
		},
		{
			"name": "typewriter03__0",
			"primitives": [
				{
					"attributes": {
						"NORMAL": 17,
						"POSITION": 16,
						"TEXCOORD_0": 18
					},
					"indices": 19,
					"material": 0,
					"mode": 4
				}
			]
		},
		{
			"name": "typewriter03__0",
			"primitives": [
				{
					"attributes": {
						"NORMAL": 21,
						"POSITION": 20,
						"TEXCOORD_0": 22
					},
					"indices": 23,
					"material": 0,
					"mode": 4
				}
			]
		},
		{
			"name": "typewriter03__0",
			"primitives": [
				{
					"attributes": {
						"NORMAL": 25,
						"POSITION": 24,
						"TEXCOORD_0": 26
					},
					"indices": 27,
					"material": 0,
					"mode": 4
				}
			]
		},
		{
			"name": "typewriter03__0",
			"primitives": [
				{
					"attributes": {
						"NORMAL": 29,
						"POSITION": 28,
						"TEXCOORD_0": 30
					},
					"indices": 31,
					"material": 0,
					"mode": 4
				}
			]
		},
		{
			"name": "typewriter03__0",
			"primitives": [
				{
					"attributes": {
						"NORMAL": 33,
						"POSITION": 32,
						"TEXCOORD_0": 34
					},
					"indices": 35,
					"material": 0,
					"mode": 4
				}
			]
		},
		{
			"name": "typewriter03__0",
			"primitives": [
				{
					"attributes": {
						"NORMAL": 37,
						"POSITION": 36,
						"TEXCOORD_0": 38
					},
					"indices": 39,
					"material": 0,
					"mode": 4
				}
			]
		},
		{
			"name": "typewriter03__0",
			"primitives": [
				{
					"attributes": {
						"NORMAL": 41,
						"POSITION": 40,
						"TEXCOORD_0": 42
					},
					"indices": 43,
					"material": 0,
					"mode": 4
				}
			]
		},
		{
			"name": "typewriter03__0",
			"primitives": [
				{
					"attributes": {
						"NORMAL": 45,
						"POSITION": 44,
						"TEXCOORD_0": 46
					},
					"indices": 47,
					"material": 0,
					"mode": 4
				}
			]
		},
		{
			"name": "typewriter03__0",
			"primitives": [
				{
					"attributes": {
						"NORMAL": 49,
						"POSITION": 48,
						"TEXCOORD_0": 50
					},
					"indices": 51,
					"material": 0,
					"mode": 4
				}
			]
		}
	],
	"nodes": [
		{
			"children": [1],
			"matrix": [
				1.0, 0.0, 0.0, 0.0, 0.0, 2.220446049250313e-16, -1.0, 0.0, 0.0, 1.0, 2.220446049250313e-16,
				0.0, 0.0, 0.0, 0.0, 1.0
			],
			"name": "Sketchfab_model"
		},
		{
			"children": [2],
			"matrix": [
				0.0010000000474974513, 0.0, 0.0, 0.0, 0.0, 0.0, 0.0010000000474974513, 0.0, 0.0,
				-0.0010000000474974513, 0.0, 0.0, 0.0, 0.0, 0.0, 1.0
			],
			"name": "2285fd18a6314d388c4fd421d66b1877.fbx"
		},
		{
			"children": [3],
			"name": "RootNode"
		},
		{
			"children": [4, 5, 6, 7, 8, 9, 10, 11, 12, 13, 14, 15, 16],
			"matrix": [
				30.0, 0.0, 0.0, 0.0, 0.0, -29.99999999999997, 1.311341612308049e-6, 0.0, 0.0,
				-1.311341612308049e-6, -29.99999999999997, 0.0, 0.0, 0.0, 0.0, 1.0
			],
			"name": "typewriter03"
		},
		{
			"mesh": 0,
			"name": "typewriter03__0"
		},
		{
			"mesh": 1,
			"name": "typewriter03__0"
		},
		{
			"mesh": 2,
			"name": "typewriter03__0"
		},
		{
			"mesh": 3,
			"name": "typewriter03__0"
		},
		{
			"mesh": 4,
			"name": "typewriter03__0"
		},
		{
			"mesh": 5,
			"name": "typewriter03__0"
		},
		{
			"mesh": 6,
			"name": "typewriter03__0"
		},
		{
			"mesh": 7,
			"name": "typewriter03__0"
		},
		{
			"mesh": 8,
			"name": "typewriter03__0"
		},
		{
			"mesh": 9,
			"name": "typewriter03__0"
		},
		{
			"mesh": 10,
			"name": "typewriter03__0"
		},
		{
			"mesh": 11,
			"name": "typewriter03__0"
		},
		{
			"mesh": 12,
			"name": "typewriter03__0"
		}
	],
	"samplers": [
		{
			"magFilter": 9729,
			"minFilter": 9987,
			"wrapS": 10497,
			"wrapT": 10497
		}
	],
	"scene": 0,
	"scenes": [
		{
			"name": "Sketchfab_Scene",
			"nodes": [0]
		}
	],
	"textures": [
		{
			"sampler": 0,
			"source": 0
		}
	]
}
